# xmcd
#
# Track frame offsets:
#	150
#	12329
#	27578
#	41144
#	55793
#	69739
#	86150
#	99142
#	113434
#	130618
#	147153
#	160758
#	175686
#	190092
#	201887
#	235588
#
# Disc length: 3147 seconds
#
# Revision: 1
# Processed by: cddbd v1.5.2PL0 Copyright (c) Steve Scherf et al.
# Submitted via: audiograbber 1.83.01
#
DISCID=cb0c4910
DTITLE=CB90011 - Chartbuster CB90011 Conway Twitty
DYEAR=2005
DGENRE=Karaoke
TTITLE0=Conway Twitty - Hello Darlin'
TTITLE1=Conway Twitty - Fifteen Years Ago
TTITLE2=Conway Twittyv - She Needs Someone To Hold Her When She Cries
TTITLE3=Conway Twitty - You've Never Been This Far Before
TTITLE4=Conway Twitty - Linda On My Mind
TTITLE5=Conway Twitty - Touch The Hand
TTITLE6=Conway Twitty - This Time I've Hurt Her More Than She Loves Me
TTITLE7=Conway Twitty - After All The Good Is Gone
TTITLE8=Conway Twitty - Don't Take It Away
TTITLE9=Conway Twitty - I'd Love To Lay You Down
TTITLE10=Conway Twitty - Tight Fittin' Jeans
TTITLE11=Conway Twitty - Slow Hand
TTITLE12=Conway Twitty - I Don't Know A Thing About Love
TTITLE13=Conway Twitty - It's Only Make Believe
TTITLE14=Conway Twitty - Red Neckin' Love Makin' Night
TTITLE15=Data Track - Data Track
EXTD=
EXTT0=
EXTT1=
EXTT2=
EXTT3=
EXTT4=
EXTT5=
EXTT6=
EXTT7=
EXTT8=
EXTT9=
EXTT10=
EXTT11=
EXTT12=
EXTT13=
EXTT14=
EXTT15=
PLAYORDER=
